<?xml version="1.0" encoding="UTF-8"?>
<svg id="Layer_2" data-name="Layer 2" xmlns="http://www.w3.org/2000/svg" viewBox="0 0 296.67 296.69">
  <defs>
    <style>
      .cls-1 {
        fill: #39a1bb;
      }
    </style>
  </defs>
  <g id="OBJECTS">
    <path class="cls-1" d="M.09,148.73l.41.41,47.71,7.72.19.22c2.3,34.79,26.25,68.83,58.92,82.87,10.03,4.53,20.79,7.31,32.3,8.32l.34.55,7.57,47.34c.22.37.74.71,1.19.44l.41-.44,7.72-47.67.18-.22c35.05-2.34,69.5-26.73,83.31-59.78,4.23-9.8,6.98-20.23,7.9-31.41l.52-.33,47.37-7.61c.37-.18.71-.74.45-1.15l-.45-.44-47.67-7.69-.23-.22c-2.34-35.05-26.73-69.5-59.77-83.28-9.8-4.23-20.27-6.98-31.45-7.94l-.3-.52L149.12.52c-.07-.34-.48-.41-.74-.52-.52.04-.89.41-.97.97l-7.57,47.26-.22.19c-34.79,2.3-68.84,26.25-82.87,58.92-4.54,10.02-7.31,20.83-8.35,32.3l-.52.34L.5,147.54c-.33.22-.67.74-.41,1.19ZM215.65,79c-1.82,1.11-3.71,2.08-5.57,3.12-4.27-4.01-8.76-7.46-13.47-10.39l-.22.22-2.01,15.41-11.47-7.17,13.18-8.76c-11.4-7.13-23.91-11.51-37.53-13.18l-.97-6.2c22.13,2.23,41.51,11.03,58.07,26.73v.22ZM211.26,133.77l-22.16-3.64,11.03-19.04.52-.63c5.16,7.09,8.69,14.85,10.62,23.32ZM202.58,106.92l3.64-6.09c5.53,6.98,9.91,14.44,12.74,22.54,1.33,3.94,2.63,8.02,3.01,12.1l-6.76-1.07c-2.04-10.06-6.34-19.16-12.62-27.47ZM187.28,129.39l-.41.41c-5.34-.89-10.84-1.63-16.04-2.68l42.55-42.55-26.1,44.81ZM166.57,107.66l-3.64-22.24c8.43,1.97,16.37,5.38,23.31,10.69l-.11.11-19.56,11.43ZM162.48,81.57l-.19-.19-1.07-6.76c12.84,2.12,24.31,7.61,34.64,15.82-1.93,1.26-3.94,2.34-5.9,3.52h-.3c-8.2-6.16-17.26-10.28-27.18-12.4ZM244.49,139.11c-2.04-.37-4.19-.56-6.2-1.07-1.56-13.66-5.87-26.25-13.14-37.42l-8.65,13.14-7.17-11.55,15.37-1.93.22-.22c-2.9-4.68-6.38-9.17-10.36-13.44.89-1.89,2.19-3.68,3.08-5.57h.22c8.54,8.91,14.89,18.75,19.46,29.29,3.82,8.99,6.57,18.67,7.16,28.77ZM217.65,215.67c-1.07-1.82-2.08-3.72-3.08-5.57,3.98-4.27,7.46-8.76,10.36-13.48l-.22-.22-15.37-2.01,7.17-11.47,8.76,13.18c7.09-11.4,11.47-23.91,13.14-37.53l6.2-.97c-2.23,22.12-10.99,41.5-26.73,58.07h-.22ZM162.93,211.29l3.64-22.24,19,11.1.67.56c-7.12,5.12-14.88,8.65-23.31,10.58ZM189.77,202.6l6.09,3.64c-6.98,5.53-14.45,9.91-22.57,12.73-3.9,1.34-8.02,2.64-12.07,3.01l1.07-6.76c10.02-2.04,19.16-6.35,27.47-12.62ZM166.86,186.89c.89-5.34,1.63-10.84,2.68-16.04l42.47,42.55-44.7-26.06-.45-.45ZM189.03,166.58l22.24-3.64c-1.97,8.47-5.42,16.37-10.69,23.32l-.11-.11-11.43-19.57ZM215.1,162.5l.22-.19,6.72-1.08c-2.19,12.84-7.54,24.47-15.93,34.64-1.11-1.97-2.19-3.97-3.41-5.87v-.33c6.19-8.21,10.32-17.26,12.4-27.17ZM157.58,244.51c.34-2.04.56-4.2,1.08-6.2,13.66-1.52,26.25-5.87,37.43-13.14l-13.18-8.65,11.54-7.16,1.93,15.4.22.19c4.71-2.89,9.21-6.39,13.47-10.36,1.89.89,3.68,2.19,5.57,3.08v.22c-8.95,8.54-18.75,14.89-29.29,19.45-8.99,3.82-18.67,6.57-28.78,7.17ZM150.64,149.25h133.31l-113.45,18.42-1.48.11-18.38-18.53ZM149.23,12.73l18.42,113.42.07,1.52-18.49,18.38V12.73ZM78.99,81.05c1.11,1.82,2.08,3.68,3.12,5.57-4.01,4.27-7.46,8.76-10.4,13.44l.22.22,15.4,2.04-7.16,11.44-8.76-13.14c-7.13,11.4-11.51,23.91-13.18,37.53l-6.2.96c2.23-22.13,11.03-41.51,26.73-58.06h.22ZM133.75,85.43l-3.64,22.13-19.05-11.03-.63-.52c7.1-5.12,14.85-8.65,23.32-10.58ZM106.91,94.08c-2-1.19-4.31-2.41-6.02-3.64,10.24-8.36,21.75-13.66,34.56-15.82l-1.07,6.83c-10.06,2.08-19.16,6.39-27.47,12.62ZM129.77,109.82c-.89,5.35-1.63,10.84-2.68,16.04l-42.43-42.58,44.66,26.1.45.45ZM107.65,130.13l-22.24,3.64c1.92-8.47,5.38-16.37,10.69-23.32l11.55,19.68ZM81.54,134.17l-.22.22-6.72,1.07c2.12-12.84,7.61-24.31,15.81-34.64l3.53,5.87v.33c-6.17,8.2-10.32,17.26-12.41,27.14ZM139.09,52.05c-.37,2.12-.55,4.31-1.08,6.31-13.67,1.56-26.25,5.91-37.43,13.18l13.15,8.65-11.55,7.17-1.93-15.41-.22-.22c-4.68,2.93-9.17,6.39-13.44,10.39-1.9-1.04-3.75-2-5.57-3.12v-.22c16.56-15.7,35.91-24.5,58.07-26.73ZM129.03,170.52l-.11-1.49,18.49-18.37v133.32l-18.38-113.46ZM85.41,162.95h.23l21.9,3.64-11.03,19.01-.52.67c-5.12-7.13-8.66-14.85-10.58-23.32ZM94.06,189.79l-3.64,6.09c-8.2-10.32-13.7-21.79-15.81-34.64,2.34.18,4.49.89,6.83,1.08,2.07,10.02,6.38,19.15,12.62,27.47ZM109.68,166.88c5.35.89,10.92,1.63,16.12,2.67l-42.54,42.47,26.43-45.15ZM106.91,202.6c8.24,6.28,17.3,10.43,27.24,12.51l.23.22,1.07,6.76c-12.88-2.12-24.32-7.61-34.64-15.85,1.97-1.34,4.04-2.41,6.1-3.64ZM130.11,189.05l3.64,22.24c-8.46-1.97-16.37-5.42-23.32-10.69l.11-.11,19.57-11.43ZM81.02,217.67c1.9-.89,3.64-2.19,5.57-3.08,4.27,3.97,8.76,7.47,13.44,10.36l.22-.19,2.04-15.4,11.44,7.16-13.15,8.76c11.4,7.13,23.91,11.51,37.54,13.14l.96,6.2c-22.16-2.2-41.51-10.99-58.07-26.73v-.22ZM52.03,157.6c2.12.33,4.31.56,6.31,1.08,1.56,13.66,5.91,26.25,13.14,37.42l8.69-13.18,7.16,11.58-15.4,1.9-.22.22c2.93,4.72,6.39,9.21,10.4,13.48-1.04,1.85-2.01,3.75-3.12,5.57h-.22c-15.71-16.56-24.51-35.94-26.73-58.07ZM12.67,147.43l113.46-18.38,1.48-.11,18.42,18.49H12.67Z"/>
    <g>
      <path class="cls-1" d="M41.77,140.94c3.65-53,46.11-95.48,99.1-99.16l1.62-10.12c-59.8,2.96-107.91,51.09-110.84,110.9l10.12-1.62Z"/>
      <path class="cls-1" d="M155.74,41.78c53,3.65,95.49,46.12,99.16,99.11l10.12,1.63c-2.95-59.81-51.09-107.93-110.9-110.86l1.62,10.12Z"/>
      <path class="cls-1" d="M254.9,155.76c-3.65,52.99-46.12,95.47-99.1,99.15l-1.64,10.12c59.81-2.95,107.93-51.08,110.86-110.9l-10.12,1.63Z"/>
      <path class="cls-1" d="M140.93,254.91c-52.99-3.65-95.47-46.11-99.15-99.1l-10.12-1.64c2.96,59.8,51.08,107.92,110.89,110.85l-1.62-10.12Z"/>
    </g>
  </g>
</svg>